<svg width="26" height="32" viewBox="0 0 26 32" fill="none" xmlns="http://www.w3.org/2000/svg">
<path d="M13 19C16.3137 19 19 16.3137 19 13C19 9.68629 16.3137 7 13 7C9.68629 7 7 9.68629 7 13C7 16.3137 9.68629 19 13 19Z" stroke="#184A8C" stroke-width="2" stroke-linecap="round" stroke-linejoin="round"/>
<path d="M25 12.5385C25 22.9231 13 31 13 31C13 31 1 22.9231 1 12.5385C1 9.47827 2.26428 6.54342 4.51472 4.37954C6.76516 2.21566 9.8174 1 13 1C16.1826 1 19.2348 2.21566 21.4853 4.37954C23.7357 6.54342 25 9.47827 25 12.5385V12.5385Z" stroke="#184A8C" stroke-width="2" stroke-linecap="round" stroke-linejoin="round"/>
</svg>
