<svg width="26" height="26" viewBox="0 0 26 26" fill="none" xmlns="http://www.w3.org/2000/svg">
<path d="M7.86034 13.0826C8.93607 15.3041 10.7324 17.0958 12.9566 18.1658C13.1207 18.2435 13.3021 18.2771 13.4831 18.2634C13.6641 18.2496 13.8385 18.189 13.9889 18.0874L17.2557 15.9052C17.4001 15.8073 17.5669 15.7475 17.7405 15.7315C17.9142 15.7155 18.0891 15.7438 18.2489 15.8137L24.3644 18.4402C24.5734 18.5272 24.748 18.6805 24.8613 18.8765C24.9747 19.0724 25.0204 19.3003 24.9916 19.5248C24.7978 21.0377 24.0593 22.428 22.9145 23.4358C21.7696 24.4436 20.2968 24.9997 18.7715 25C14.0582 25 9.53798 23.1276 6.20517 19.7948C2.87235 16.462 1 11.9418 1 7.22846C1.00034 5.70323 1.55642 4.2304 2.56419 3.08554C3.57196 1.94068 4.96235 1.20224 6.4752 1.00841C6.69975 0.97957 6.92755 1.02534 7.12353 1.13868C7.31951 1.25202 7.4728 1.42663 7.55979 1.63565L10.1863 7.76422C10.2546 7.92148 10.2832 8.09312 10.2695 8.26403C10.2559 8.43494 10.2004 8.59986 10.1079 8.74426L7.92568 12.0634C7.82852 12.2135 7.7715 12.386 7.76006 12.5645C7.74862 12.7429 7.78315 12.9213 7.86034 13.0826Z" stroke="#184A8C" stroke-width="2" stroke-linecap="round" stroke-linejoin="round"/>
</svg>
